<svg width="148" height="36" viewBox="0 0 148 36" fill="none" xmlns="http://www.w3.org/2000/svg">
<path d="M12.916 27L13.096 24.876C13.912 24.804 14.5 24.732 14.86 24.66C15.244 24.564 15.508 24.444 15.652 24.3C15.796 24.132 15.868 23.892 15.868 23.58C15.868 23.292 15.808 22.872 15.688 22.32L14.932 19.548C13.684 19.5 12.58 19.476 11.62 19.476C11.188 19.476 10.288 19.536 8.92 19.656L8.164 19.728L7.264 22.5C7.12 23.028 7.048 23.4 7.048 23.616C7.048 24.048 7.168 24.348 7.408 24.516C7.672 24.684 8.116 24.768 8.74 24.768H10.288L10.468 25.02L10.216 27.216C9.88 27.192 9.16 27.144 8.056 27.072C6.952 27.024 5.92 27 4.96 27C3.952 27 3.04 27.012 2.224 27.036C1.432 27.06 0.904 27.084 0.64 27.108L0.892 24.768C1.444 24.672 1.9 24.444 2.26 24.084C2.62 23.724 2.956 23.136 3.268 22.32L9.712 4.068L15.22 3.492L15.616 3.672C15.976 5.04 16.72 7.848 17.848 12.096C19 16.32 19.984 19.716 20.8 22.284C21.064 23.148 21.4 23.76 21.808 24.12C22.216 24.48 22.828 24.696 23.644 24.768L23.788 25.02L23.536 27.108C23.224 27.084 22.636 27.06 21.772 27.036C20.908 27.012 20.032 27 19.144 27C17.872 27 16.624 27.036 15.4 27.108C14.2 27.204 13.432 27.264 13.096 27.288L12.916 27ZM11.62 16.704C11.884 16.704 12.772 16.668 14.284 16.596L12.16 8.568H11.692L9.028 16.704H11.62ZM38.6009 27.432C36.4649 27.432 35.2649 26.568 35.0009 24.84L34.7849 24.768C32.4569 26.448 31.0529 27.288 30.5729 27.288C28.4849 27.288 26.8169 26.58 25.5689 25.164C24.3449 23.748 23.7329 21.828 23.7329 19.404C23.7329 17.628 24.1169 16.032 24.8849 14.616C25.6769 13.176 26.7569 12.06 28.1249 11.268C29.5169 10.452 31.0769 10.044 32.8049 10.044C33.3809 10.044 34.0049 10.08 34.6769 10.152V5.508C34.6769 4.764 34.5569 4.248 34.3169 3.96C34.1009 3.648 33.7169 3.492 33.1649 3.492C32.9729 3.492 32.7929 3.504 32.6249 3.528C32.4569 3.552 32.3489 3.576 32.3009 3.6L32.5169 1.476C33.9329 1.308 35.3609 1.092 36.8009 0.827998C38.2409 0.563998 39.1769 0.383999 39.6089 0.287998L39.9329 0.899999C39.6209 1.356 39.3569 3.696 39.1409 7.92C38.9249 12.144 38.8169 16.932 38.8169 22.284C38.8169 22.74 38.9129 23.1 39.1049 23.364C39.3209 23.628 39.6089 23.76 39.9689 23.76C40.2329 23.76 40.4849 23.712 40.7249 23.616C40.9649 23.52 41.1569 23.424 41.3009 23.328C41.4689 23.232 41.5769 23.172 41.6249 23.148L42.2009 23.904C42.1289 24.048 41.9249 24.36 41.5889 24.84C41.2529 25.32 40.8089 25.824 40.2569 26.352C39.7289 26.88 39.1769 27.24 38.6009 27.432ZM31.9049 23.976C32.2889 23.976 32.6849 23.892 33.0929 23.724C33.5249 23.532 33.8729 23.34 34.1369 23.148C34.4249 22.956 34.6049 22.824 34.6769 22.752V13.644C34.6289 13.62 34.4849 13.56 34.2449 13.464C34.0049 13.368 33.6929 13.272 33.3089 13.176C32.9249 13.08 32.4929 13.032 32.0129 13.032C30.8369 13.032 29.9249 13.476 29.2769 14.364C28.6289 15.228 28.3049 16.464 28.3049 18.072C28.3049 19.848 28.6289 21.276 29.2769 22.356C29.9489 23.436 30.8249 23.976 31.9049 23.976ZM50.8808 27.432C49.3688 27.432 48.0368 27.096 46.8848 26.424C45.7328 25.728 44.8448 24.756 44.2208 23.508C43.5968 22.26 43.2848 20.82 43.2848 19.188C43.2848 17.388 43.6448 15.792 44.3648 14.4C45.1088 13.008 46.1288 11.928 47.4248 11.16C48.7448 10.368 50.2568 9.972 51.9608 9.972C54.2888 9.972 56.1248 10.716 57.4688 12.204C58.8368 13.668 59.5208 15.66 59.5208 18.18C59.5208 19.98 59.1608 21.588 58.4408 23.004C57.7208 24.396 56.7008 25.488 55.3808 26.28C54.0848 27.048 52.5848 27.432 50.8808 27.432ZM51.6008 24.732C52.6328 24.732 53.4128 24.324 53.9408 23.508C54.4928 22.668 54.7688 21.444 54.7688 19.836C54.7688 17.58 54.4568 15.876 53.8328 14.724C53.2088 13.572 52.3088 12.996 51.1328 12.996C50.1008 12.996 49.3088 13.416 48.7568 14.256C48.2288 15.072 47.9648 16.284 47.9648 17.892C47.9648 20.148 48.2768 21.852 48.9008 23.004C49.5248 24.156 50.4248 24.732 51.6008 24.732ZM62.0633 33.3C62.7353 33.252 63.1673 33.084 63.3593 32.796C63.5753 32.508 63.6953 31.92 63.7193 31.032C63.8393 28.752 63.8993 26.916 63.8993 25.524V15.336C63.8993 14.52 63.7673 13.956 63.5033 13.644C63.2633 13.332 62.8073 13.176 62.1353 13.176H61.6673L61.5233 12.996L61.7033 11.124C63.0473 10.932 64.3793 10.704 65.6993 10.44C67.0193 10.176 67.8713 10.008 68.2553 9.936L68.5793 10.296C68.5553 10.44 68.4953 10.752 68.3993 11.232C68.3033 11.688 68.2313 12.132 68.1833 12.564L68.3273 12.744C70.2953 10.992 71.5073 10.116 71.9633 10.116C73.3793 10.116 74.6273 10.44 75.7073 11.088C76.7873 11.736 77.6153 12.66 78.1913 13.86C78.7913 15.06 79.0913 16.44 79.0913 18C79.0913 19.848 78.6833 21.48 77.8673 22.896C77.0513 24.312 75.9233 25.416 74.4833 26.208C73.0433 26.976 71.3993 27.36 69.5513 27.36C69.2393 27.36 68.9273 27.348 68.6153 27.324C68.3033 27.3 68.0873 27.276 67.9673 27.252L68.0033 30.6C68.0033 31.584 68.0753 32.244 68.2193 32.58C68.3873 32.916 68.7473 33.084 69.2993 33.084C69.6353 33.084 69.9233 33.072 70.1633 33.048C70.4273 33.024 70.6313 33.012 70.7753 33.012L70.8473 33.156L70.4513 35.352C69.9233 35.352 69.4553 35.34 69.0473 35.316L66.1313 35.28C65.2913 35.28 64.4153 35.304 63.5033 35.352C62.6153 35.424 62.0393 35.472 61.7753 35.496L62.0633 33.3ZM70.8113 24.444C71.9873 24.444 72.8993 24 73.5473 23.112C74.1953 22.224 74.5193 20.976 74.5193 19.368C74.5193 17.616 74.1833 16.224 73.5113 15.192C72.8633 14.136 71.9993 13.608 70.9193 13.608C70.5833 13.608 70.1753 13.716 69.6953 13.932C69.2153 14.124 68.7593 14.388 68.3273 14.724C68.1833 17.532 68.1113 20.592 68.1113 23.904C68.4233 24.024 68.8313 24.144 69.3353 24.264C69.8393 24.384 70.3313 24.444 70.8113 24.444ZM87.4473 27.432C85.7433 27.432 84.4953 27.084 83.7033 26.388C82.9113 25.668 82.5153 24.54 82.5153 23.004V14.976C82.5153 14.208 82.3833 13.704 82.1193 13.464C81.8553 13.2 81.3393 13.056 80.5713 13.032L80.2113 12.78L80.4633 11.016C81.3753 10.584 82.2753 10.092 83.1633 9.54C84.0513 8.964 84.7833 8.46 85.3593 8.028C85.9593 7.596 86.3313 7.32 86.4753 7.2L87.4833 7.704C87.4593 7.848 87.3993 8.196 87.3033 8.748C87.2313 9.3 87.1593 9.984 87.0873 10.8L91.3353 10.692L91.4793 10.872L91.1193 13.284L86.8713 13.176C86.7273 15.264 86.6553 17.88 86.6553 21.024C86.6553 22.056 86.8353 22.8 87.1953 23.256C87.5553 23.712 88.1433 23.94 88.9593 23.94C89.3913 23.94 89.8233 23.868 90.2553 23.724C90.7113 23.58 90.9993 23.484 91.1193 23.436L91.5873 24.588C91.4433 24.732 91.0953 25.032 90.5433 25.488C90.0153 25.944 89.4393 26.388 88.8153 26.82C88.2153 27.228 87.7593 27.432 87.4473 27.432ZM113.382 25.056C113.958 24.936 114.366 24.72 114.606 24.408C114.87 24.096 115.014 23.64 115.038 23.04L115.146 16.812C115.146 15.756 114.954 14.976 114.57 14.472C114.186 13.944 113.598 13.68 112.806 13.68C111.894 13.68 110.838 14.136 109.638 15.048C109.398 19.368 109.278 22.068 109.278 23.148C109.278 23.772 109.35 24.204 109.494 24.444C109.662 24.66 109.95 24.768 110.358 24.768L111.33 24.732L111.402 24.876L111.042 27.108C110.778 27.084 110.274 27.06 109.53 27.036C108.81 27.012 108.054 27 107.262 27C106.278 27 105.378 27.012 104.562 27.036C103.77 27.06 103.242 27.084 102.978 27.108L103.302 24.912C103.998 24.864 104.478 24.696 104.742 24.408C105.03 24.12 105.174 23.64 105.174 22.968V15.336C105.174 14.496 105.042 13.932 104.778 13.644C104.538 13.332 104.082 13.176 103.41 13.176H102.942L102.798 12.996L102.978 11.124C104.322 10.932 105.666 10.704 107.01 10.44C108.354 10.176 109.218 10.008 109.602 9.936L109.89 10.296C109.842 10.44 109.77 10.764 109.674 11.268C109.578 11.772 109.518 12.276 109.494 12.78L109.602 12.888C110.442 12.216 111.33 11.568 112.266 10.944C113.226 10.296 113.91 9.972 114.318 9.972C115.662 9.972 116.754 10.224 117.594 10.728C118.458 11.232 119.058 11.976 119.394 12.96C120.066 12.36 120.918 11.712 121.95 11.016C123.006 10.32 123.75 9.972 124.182 9.972C125.886 9.972 127.218 10.38 128.178 11.196C129.138 12.012 129.618 13.152 129.618 14.616C129.618 15.192 129.51 16.452 129.294 18.396C129.054 20.844 128.934 22.416 128.934 23.112C128.934 23.736 129.018 24.18 129.186 24.444C129.378 24.708 129.678 24.84 130.086 24.84C130.302 24.84 130.518 24.828 130.734 24.804C130.974 24.78 131.13 24.768 131.202 24.768L131.274 24.912L130.914 27.108C130.626 27.084 130.098 27.06 129.33 27.036C128.562 27.012 127.782 27 126.99 27C126.414 27 125.682 27.024 124.794 27.072C123.93 27.12 123.366 27.156 123.102 27.18L123.354 24.948C123.906 24.876 124.29 24.696 124.506 24.408C124.746 24.12 124.878 23.664 124.902 23.04L125.01 16.812C125.034 14.724 124.254 13.68 122.67 13.68C121.758 13.68 120.726 14.124 119.574 15.012L119.106 23.112C119.106 23.736 119.19 24.18 119.358 24.444C119.55 24.708 119.838 24.84 120.222 24.84C120.438 24.84 120.642 24.828 120.834 24.804C121.026 24.78 121.158 24.768 121.23 24.768L121.302 24.912L120.942 27.108C120.678 27.084 120.174 27.06 119.43 27.036C118.686 27.012 117.93 27 117.162 27C116.586 27 115.842 27.036 114.93 27.108C114.018 27.204 113.418 27.264 113.13 27.288L113.382 25.056ZM141.135 27.432C138.615 27.432 136.623 26.7 135.159 25.236C133.719 23.748 132.999 21.72 132.999 19.152C132.999 17.424 133.371 15.864 134.115 14.472C134.859 13.08 135.879 11.988 137.175 11.196C138.471 10.38 139.911 9.972 141.495 9.972C145.527 9.972 147.543 12.012 147.543 16.092C147.543 16.812 147.459 17.484 147.291 18.108L146.859 18.54H137.535C137.559 20.292 137.967 21.636 138.759 22.572C139.575 23.484 140.703 23.94 142.143 23.94C143.391 23.94 144.819 23.58 146.427 22.86L146.679 23.004L147.255 24.768C146.367 25.44 145.335 26.052 144.159 26.604C143.007 27.156 141.999 27.432 141.135 27.432ZM142.467 16.272C142.755 16.248 142.935 16.188 143.007 16.092C143.103 15.996 143.151 15.78 143.151 15.444C143.151 13.668 142.395 12.78 140.883 12.78C139.947 12.78 139.179 13.104 138.579 13.752C138.003 14.4 137.655 15.336 137.535 16.56L142.467 16.272Z" fill="#F4F4F4"/>
<path d="M96.8084 27.396C95.9444 27.396 95.2844 27.156 94.8284 26.676C94.3964 26.196 94.1804 25.548 94.1804 24.732C94.1804 23.868 94.4324 23.172 94.9364 22.644C95.4644 22.092 96.1724 21.816 97.0604 21.816C97.8764 21.816 98.5124 22.068 98.9684 22.572C99.4484 23.052 99.6884 23.688 99.6884 24.48C99.6884 25.344 99.4244 26.052 98.8964 26.604C98.3684 27.132 97.6724 27.396 96.8084 27.396Z" fill="#E8A057"/>
</svg>
