<svg width="32" height="35" viewBox="0 0 32 35" fill="none" xmlns="http://www.w3.org/2000/svg">
<g clip-path="url(#clip0)">
<path d="M16 0.506592C9.51986 0.506592 4.26666 6.03996 4.26666 12.8657C4.26666 19.507 15.1264 33.4206 15.5888 34.0093C15.6901 34.1385 15.8409 34.2133 16 34.2133C16.1591 34.2133 16.3099 34.1385 16.4112 34.0093C16.8736 33.4206 27.7333 19.507 27.7333 12.8657C27.7333 6.03996 22.4801 0.506592 16 0.506592ZM16 32.7588C13.9931 30.1201 5.33333 18.4116 5.33333 12.8657C5.34006 6.6634 10.1118 1.63724 16 1.63015C21.8883 1.63724 26.6599 6.6634 26.6667 12.8657C26.6667 18.4104 18.0069 30.1196 16 32.7588Z" fill="#E09B3D"/>
<path d="M23.2586 10.7354L16.3253 5.11758C16.1335 4.96211 15.8664 4.96211 15.6746 5.11758L8.74131 10.7354C8.50804 10.9247 8.46471 11.2775 8.64451 11.5233C8.74544 11.6612 8.90131 11.742 9.06664 11.7421H10.6666V17.9216C10.6666 18.2319 10.9054 18.4834 11.2 18.4834H20.8C21.0945 18.4834 21.3333 18.2319 21.3333 17.9216V11.7421H22.9333C23.2278 11.7419 23.4665 11.4902 23.4664 11.18C23.4663 11.0059 23.3896 10.8417 23.2586 10.7354ZM17.0666 17.3598H14.9333V13.9892H17.0666V17.3598ZM20.8 10.6185C20.5054 10.6185 20.2666 10.87 20.2666 11.1803V17.3598H18.1333V13.4274C18.1333 13.1172 17.8945 12.8656 17.6 12.8656H14.4C14.1054 12.8656 13.8666 13.1172 13.8666 13.4274V17.3598H11.7333V11.1803C11.7333 10.87 11.4945 10.6185 11.2 10.6185H10.6346L16 6.27147L21.3653 10.6185H20.8Z" fill="#E09B3D"/>
</g>
<defs>
<clipPath id="clip0">
<rect width="32" height="33.7067" fill="white" transform="translate(0 0.506592)"/>
</clipPath>
</defs>
</svg>
