<svg xmlns="http://www.w3.org/2000/svg" width="24" height="19" fill="none" viewBox="0 0 24 19"><path fill="#E8A057" d="M21.8906 0.699951H2.10938C0.946266 0.699951 0 1.69668 0 2.92183V15.7979C0 17.0231 0.946266 18.0198 2.10938 18.0198H21.8906C23.0537 18.0198 24 17.0231 24 15.7979V2.92183C24 1.69668 23.0537 0.699951 21.8906 0.699951ZM21.6153 2.1812L21.3338 2.42813L12.8369 9.88084C12.3519 10.3062 11.648 10.3062 11.1631 9.88084L2.6662 2.42813L2.38467 2.1812H21.6153ZM1.40625 3.25057L8.32931 9.32285L1.40625 14.1761V3.25057ZM21.8906 16.5386H2.10938C1.76962 16.5386 1.48547 16.2834 1.42036 15.9455L9.45684 10.3118L10.2633 11.0191C10.7664 11.4604 11.3833 11.6811 12 11.6811C12.6168 11.6811 13.2336 11.4604 13.7368 11.0191L14.5433 10.3118L22.5797 15.9455C22.5145 16.2834 22.2304 16.5386 21.8906 16.5386ZM22.5938 14.1761L15.6707 9.3229L22.5938 3.25057V14.1761Z"/></svg>