<svg width="32" height="32" viewBox="0 0 32 32" fill="none" xmlns="http://www.w3.org/2000/svg">
<g clip-path="url(#clip0)">
<path d="M32 16.0002C32 24.8369 24.8367 32.0002 16 32.0002C7.16333 32.0002 0 24.8369 0 16.0002C0 7.16357 7.16333 0.000244141 16 0.000244141C24.8367 0.000244141 32 7.16357 32 16.0002Z" fill="#4A7AFF"/>
<path d="M16.7021 31.9839C25.2129 31.6164 32 24.6013 32 16.0002C32 15.938 31.9983 15.876 31.9976 15.8137L20.8914 4.70728L9.01636 17.1194L15.6143 23.7173L12.572 27.8538L16.7021 31.9839Z" fill="#0053BF"/>
<path d="M20.8914 4.70729V8.33034C20.8914 8.33034 16.7317 7.72658 16.7317 10.4102V13.0938H20.4888L20.0193 17.1863H16.7317V27.8538H12.572V17.1863L9.01611 17.1192V13.0938H12.5049V10.0076C12.5049 10.0076 12.2747 5.41652 16.7988 4.57326C18.6775 4.22292 20.8914 4.70729 20.8914 4.70729Z" fill="white"/>
<path d="M20.8914 8.33034V4.70729C20.8914 4.70729 18.6775 4.22292 16.7988 4.57326C16.5054 4.62795 16.2324 4.69875 15.9778 4.78249V27.8538H16.7317V17.1863H20.019L20.4888 13.0938H16.7317C16.7317 13.0938 16.7317 13.0938 16.7317 10.4102C16.7317 7.72658 20.8914 8.33034 20.8914 8.33034Z" fill="#DCE1EB"/>
</g>
<defs>
<clipPath id="clip0">
<rect width="32" height="32" fill="white" transform="translate(0 0.000244141)"/>
</clipPath>
</defs>
</svg>
