<svg xmlns="http://www.w3.org/2000/svg" width="255" height="221" fill="none" viewBox="0 0 255 221"><path fill="#D9BA9D" d="M46.206 140.4C56.5412 140.4 64.9461 129.913 64.9461 117.022C64.9461 104.13 56.5412 93.6439 46.206 93.6439C35.8686 93.6439 27.4637 104.13 27.4637 117.022C27.4637 129.913 35.8686 140.4 46.206 140.4Z"/><path fill="#D9BA9D" d="M90.8791 140.4C101.203 140.4 109.619 129.913 109.619 117.022C109.619 104.13 101.205 93.6439 90.8791 93.6439C80.5417 93.6439 72.1368 104.13 72.1368 117.022C72.1368 129.913 80.5417 140.4 90.8791 140.4Z"/><path fill="#D9BA9D" d="M125.864 128.739C117.736 127.252 109.716 133.915 107.596 143.923C105.479 153.919 110.18 162.913 118.31 164.4C126.43 165.885 134.459 159.221 136.576 149.225C138.697 139.219 133.983 130.225 125.864 128.739Z"/><path fill="#D9BA9D" d="M29.4869 143.923C27.3666 133.915 19.3482 127.252 11.2185 128.739C3.09969 130.225 -1.61371 139.218 0.506609 149.226C2.62366 159.222 10.6529 165.886 18.7728 164.401C26.9026 162.913 31.604 153.919 29.4869 143.923Z"/><path fill="#D9BA9D" d="M96.8306 169.649C94.6251 156.983 82.7821 147.279 68.5415 147.279C54.3008 147.279 42.4567 156.983 40.2523 169.649C30.1158 173.759 23.0113 183.159 23.0113 194.075C23.0113 208.764 35.8686 220.714 51.6728 220.714C57.9748 220.714 63.8051 218.809 68.5426 215.592C73.2789 218.809 79.1092 220.714 85.4123 220.714C101.216 220.714 114.074 208.764 114.074 194.075C114.073 183.159 106.966 173.759 96.8306 169.649Z"/><path fill="#D9BA9D" d="M164.123 47.0423C174.458 47.0423 182.863 36.5559 182.863 23.6644C182.863 10.773 174.458 0.286499 164.123 0.286499C153.786 0.286499 145.381 10.773 145.381 23.6644C145.381 36.5559 153.786 47.0423 164.123 47.0423Z"/><path fill="#D9BA9D" d="M208.796 47.0423C219.12 47.0423 227.536 36.5559 227.536 23.6644C227.536 10.773 219.122 0.286499 208.796 0.286499C198.459 0.286499 190.054 10.773 190.054 23.6644C190.054 36.5559 198.459 47.0423 208.796 47.0423Z"/><path fill="#D9BA9D" d="M243.782 35.3817C235.653 33.8941 227.633 40.558 225.513 50.5655C223.396 60.5619 228.097 69.5556 236.227 71.0422C244.347 72.5279 252.376 65.864 254.493 55.8676C256.614 45.8611 251.9 36.8673 243.782 35.3817Z"/><path fill="#D9BA9D" d="M136.69 71.0434C144.819 69.5557 149.521 60.562 147.404 50.5666C145.284 40.5591 137.265 33.8952 129.136 35.3828C121.017 36.8684 116.303 45.8612 118.424 55.8697C120.542 65.8651 128.571 72.529 136.69 71.0434Z"/><path fill="#D9BA9D" d="M214.748 76.2917C212.542 63.6255 200.699 53.9214 186.459 53.9214C172.218 53.9214 160.374 63.6255 158.169 76.2917C148.033 80.4014 140.928 89.8011 140.928 100.718C140.928 115.406 153.786 127.356 169.59 127.356C175.892 127.356 181.722 125.451 186.46 122.235C191.196 125.451 197.026 127.356 203.329 127.356C219.134 127.356 231.991 115.406 231.991 100.718C231.99 89.8011 224.883 80.4014 214.748 76.2917Z"/></svg>