<svg xmlns="http://www.w3.org/2000/svg" width="24" height="26" fill="none" viewBox="0 0 24 26"><path fill="#E8A057" d="M22.6667 18.2755C21.0067 18.2755 19.4 17.9946 17.9067 17.475C17.4467 17.3205 16.92 17.4329 16.5534 17.8191L13.6201 20.9159C9.84006 18.8935 6.75338 15.6422 4.83337 11.6677L7.76669 8.56382C8.13338 8.17757 8.24 7.62286 8.09338 7.13833C7.60006 5.56537 7.33337 3.87299 7.33337 2.12446C7.33331 1.34493 6.74 0.719971 6 0.719971H1.33331C0.6 0.719971 0 1.34493 0 2.12439C0 15.3121 10.1467 26 22.6667 26C23.4067 26 24 25.375 24 24.5955V19.68C24 18.9005 23.4067 18.2755 22.6667 18.2755Z"/></svg>