<svg width="32" height="32" viewBox="0 0 32 32" fill="none" xmlns="http://www.w3.org/2000/svg">
<g clip-path="url(#clip0)">
<path d="M0 32L3.24481 22.7291C1.99869 20.4714 1.34206 17.9226 1.34206 15.329C1.34206 11.2345 2.9365 7.385 5.83181 4.48981C8.72713 1.59462 12.5765 0 16.6711 0C20.7656 0 24.615 1.59444 27.5103 4.48975C30.4055 7.38506 32 11.2344 32 15.3289C32 19.4234 30.4056 23.2729 27.5103 26.1681C24.615 29.0634 20.7656 30.6579 16.6711 30.6579C14.0773 30.6579 11.5286 30.0013 9.27094 28.7551L0 32Z" fill="#86F28B"/>
<path d="M0 32L9.27081 28.7552C11.5286 30.0013 14.0773 30.6579 16.671 30.6579C20.7655 30.6579 24.615 29.0634 27.5102 26.1682C30.4054 23.2729 32 19.4235 32 15.3289C32 11.2344 30.4056 7.385 27.5103 4.48975L0 32Z" fill="#66E26F"/>
<path d="M13.1886 18.8115C16.8538 22.4766 21.0133 24.2593 22.4794 22.7933L24.249 21.0236C24.6155 20.6571 24.6155 20.0629 24.249 19.6964L22.0369 17.4843C21.6704 17.1178 21.0762 17.1178 20.7097 17.4843L19.3824 18.8116C16.6645 17.5241 14.4761 15.3356 13.1886 12.6178L14.5159 11.2905C14.8824 10.924 14.8824 10.3298 14.5159 9.96326L12.3038 7.75119C11.9373 7.38469 11.3431 7.38469 10.9766 7.75119L9.20694 9.52082C7.74082 10.9868 9.52351 15.1464 13.1886 18.8115Z" fill="white"/>
<path d="M24.249 19.696L22.037 17.484C21.6705 17.1175 21.0762 17.1175 20.7097 17.484L19.3825 18.8112C18.0235 18.1675 16.797 17.2985 15.7492 16.2507L13.1887 18.8112C16.8538 22.4764 21.0133 24.259 22.4794 22.793L24.249 21.0234C24.6155 20.6567 24.6155 20.0625 24.249 19.696Z" fill="#DCF4FF"/>
</g>
<defs>
<clipPath id="clip0">
<rect width="32" height="32" fill="white"/>
</clipPath>
</defs>
</svg>
